<svg xmlns="http://www.w3.org/2000/svg" viewBox="0 0 512 512" fill="none">
  <rect width="512" height="512" rx="96" fill="#E5192C"/>
  <g transform="translate(80, 80)">
    <path d="M176 0C96 0 32 64 32 144v16H0v48h32v16c0 16 8 24 24 24h240c16 0 24-8 24-24v-16h32v-48h-32v-16C320 64 256 0 176 0z" fill="white" opacity="0.95"/>
    <path d="M176 32c-60 0-112 52-112 112v16h224v-16c0-60-52-112-112-112z" fill="#E5192C"/>
    <text x="176" y="300" text-anchor="middle" font-family="Inter,Arial,sans-serif" font-weight="900" font-size="72" fill="white" letter-spacing="-2">OBRA</text>
    <text x="176" y="350" text-anchor="middle" font-family="Inter,Arial,sans-serif" font-weight="900" font-size="52" fill="white" opacity="0.9" letter-spacing="8">10</text>
  </g>
</svg>
